<svg xmlns="http://www.w3.org/2000/svg" version="1.1" xmlns:xlink="http://www.w3.org/1999/xlink" viewBox="0 0 200 200"><rect width="200" height="200" fill="url('#gradient')"></rect><defs><linearGradient id="gradient" gradientTransform="rotate(130 0.5 0.5)"><stop offset="0%" stop-color="#bb445a"></stop><stop offset="100%" stop-color="#1d6fa9"></stop></linearGradient></defs><g><g fill="#f3eee8" transform="matrix(1.8422788605697151,0,0,1.8422788605697151,10.052492831752403,113.53517086666741)" stroke="#c06a3e" stroke-width="0.65"><path d="M9.98 0L9.15-2.66L4.45-2.66L3.63 0L-0.03 0L5.19-14.22L8.41-14.22L13.66 0L9.98 0ZM6.80-10.23L5.27-5.30L8.33-5.30L6.80-10.23ZM14.10-10.57L17.19-10.57L17.29-9.33Q18.42-10.76 20.31-10.76L20.31-10.76Q22.31-10.76 23.02-9.17L23.02-9.17Q24.09-10.76 26.12-10.76L26.12-10.76Q29.34-10.76 29.42-6.88L29.42-6.88L29.42 0L26.12 0L26.12-6.67Q26.12-7.48 25.85-7.85Q25.58-8.22 24.85-8.22L24.85-8.22Q23.88-8.22 23.40-7.35L23.40-7.35L23.41-7.22L23.41 0L20.11 0L20.11-6.65Q20.11-7.48 19.84-7.85Q19.58-8.22 18.84-8.22L18.84-8.22Q17.89-8.22 17.39-7.35L17.39-7.35L17.39 0L14.10 0L14.10-10.57ZM30.90-4.82L30.89-5.38Q30.89-6.96 31.50-8.20Q32.12-9.43 33.27-10.10Q34.42-10.76 35.98-10.76L35.98-10.76Q38.35-10.76 39.72-9.29Q41.08-7.82 41.08-5.29L41.08-5.29L41.08-5.18Q41.08-2.71 39.71-1.25Q38.34 0.20 36.00 0.20L36.00 0.20Q33.74 0.20 32.37-1.16Q31.01-2.51 30.90-4.82L30.90-4.82ZM34.19-5.77L34.18-5.18Q34.18-3.71 34.64-3.03Q35.10-2.34 36.00-2.34L36.00-2.34Q37.75-2.34 37.79-5.05L37.79-5.05L37.79-5.38Q37.79-8.22 35.98-8.22L35.98-8.22Q34.33-8.22 34.19-5.77L34.19-5.77ZM48.07-2.97L48.07-2.97Q48.07-3.39 47.63-3.64Q47.19-3.90 45.96-4.17Q44.73-4.44 43.93-4.89Q43.13-5.33 42.71-5.97Q42.29-6.60 42.29-7.42L42.29-7.42Q42.29-8.88 43.49-9.82Q44.69-10.76 46.63-10.76L46.63-10.76Q48.72-10.76 49.99-9.81Q51.26-8.87 51.26-7.32L51.26-7.32L47.96-7.32Q47.96-8.59 46.62-8.59L46.62-8.59Q46.10-8.59 45.75-8.31Q45.40-8.02 45.40-7.59L45.40-7.59Q45.40-7.15 45.83-6.88Q46.26-6.60 47.20-6.43Q48.14-6.25 48.86-6.01L48.86-6.01Q51.24-5.19 51.24-3.07L51.24-3.07Q51.24-1.62 49.96-0.71Q48.67 0.20 46.63 0.20L46.63 0.20Q45.27 0.20 44.21-0.29Q43.14-0.78 42.55-1.62Q41.95-2.46 41.95-3.39L41.95-3.39L45.03-3.39Q45.05-2.66 45.52-2.32Q45.99-1.98 46.72-1.98L46.72-1.98Q47.39-1.98 47.73-2.26Q48.07-2.53 48.07-2.97ZM64.09-14.22L64.09-11.57L59.82-11.57L59.82 0L56.40 0L56.40-11.57L52.21-11.57L52.21-14.22L64.09-14.22ZM68.86-10.57L68.86 0L65.56 0L65.56-10.57L68.86-10.57ZM65.36-13.29L65.36-13.29Q65.36-13.99 65.87-14.44Q66.38-14.89 67.19-14.89Q68.00-14.89 68.51-14.44Q69.01-13.99 69.01-13.29Q69.01-12.59 68.51-12.14Q68.00-11.69 67.19-11.69Q66.38-11.69 65.87-12.14Q65.36-12.59 65.36-13.29ZM70.91-10.57L73.99-10.57L74.10-9.33Q75.22-10.76 77.12-10.76L77.12-10.76Q79.12-10.76 79.82-9.17L79.82-9.17Q80.90-10.76 82.93-10.76L82.93-10.76Q86.14-10.76 86.23-6.88L86.23-6.88L86.23 0L82.93 0L82.93-6.67Q82.93-7.48 82.66-7.85Q82.38-8.22 81.66-8.22L81.66-8.22Q80.68-8.22 80.21-7.35L80.21-7.35L80.21-7.22L80.21 0L76.91 0L76.91-6.65Q76.91-7.48 76.65-7.85Q76.39-8.22 75.64-8.22L75.64-8.22Q74.70-8.22 74.20-7.35L74.20-7.35L74.20 0L70.91 0L70.91-10.57ZM93.22 0.20L93.22 0.20Q90.79 0.20 89.29-1.25Q87.78-2.71 87.78-5.03L87.78-5.03L87.78-5.30Q87.78-6.92 88.38-8.16Q88.98-9.40 90.14-10.08Q91.29-10.76 92.87-10.76L92.87-10.76Q95.10-10.76 96.39-9.38Q97.68-8.00 97.68-5.53L97.68-5.53L97.68-4.25L91.13-4.25Q91.31-3.36 91.90-2.85Q92.50-2.34 93.45-2.34L93.45-2.34Q95.01-2.34 95.89-3.44L95.89-3.44L97.39-1.66Q96.78-0.81 95.65-0.31Q94.52 0.20 93.22 0.20ZM92.85-8.22L92.85-8.22Q91.41-8.22 91.13-6.31L91.13-6.31L94.45-6.31L94.45-6.56Q94.47-7.35 94.05-7.79Q93.63-8.22 92.85-8.22Z"></path></g></g></svg>